#!OML:ASF H:\Not Pregnant\Project 1\Capture day 1\Session 1\non-pregnant.ASF
:FULLY-SPECIFIED
:DEGREES
372
root -5.65761 16.3166 34.9066 168.371 -80.4993 -155.808
lowerback -13.6112 2.13963 1.98327
upperback -5.73177 2.28798 -0.124133
thorax 1.68316 0.986534 -0.911396
lowerneck 17.2344 -8.1797 -32.1221
upperneck -6.64974 -18.6617 43.2988
head 3.58819 -12.1198 23.2392
rclavicle -2.18663e-014 1.03368e-014
rhumerus -36.4375 10.5692 -94.9076
rradius 24.648
rwrist 24.8108
rhand -8.66839 3.75838
rfingers 7.12502
rthumb 17.2656 -25.4946
lclavicle -2.18663e-014 1.03368e-014
lhumerus -42.9162 -20.3154 98.9916
lradius 32.1612
lwrist 35.7284
lhand -23.0816 -12.1286
lfingers 7.12502
lthumb 3.36434 17.8246
rfemur -9.20245 -6.31229 22.2255
rtibia 5.99792
rfoot -12.182 13.453
rtoes -13.2869
lfemur -14.7215 4.12108 -15.65
ltibia 14.188
lfoot -13.929 -7.03275
ltoes -19.5524
373
root -5.65575 16.3168 34.907 168.286 -80.5038 -155.701
lowerback -13.7277 2.03284 1.98435
upperback -5.60602 2.14435 0.00126922
thorax 1.8681 0.920688 -0.797662
lowerneck 17.1096 -8.13052 -32.435
upperneck -6.91556 -18.5777 43.4631
head 3.58517 -12.0856 23.4692
rclavicle -4.08254e-014 -3.18055e-015
rhumerus -36.3665 11.3773 -95.0701
rradius 24.7729
rwrist 24.4486
rhand -8.70223 3.68262
rfingers 7.12502
rthumb 17.2331 -25.5733
lclavicle -4.08254e-014 -3.18055e-015
lhumerus -42.8627 -20.6918 99.1633
lradius 32.4599
lwrist 36.1077
lhand -23.1966 -11.969
lfingers 7.12502
lthumb 3.25328 17.9859
rfemur -9.24786 -6.31896 22.2471
rtibia 6.02786
rfoot -12.1884 13.4519
rtoes -13.2935
lfemur -14.7804 4.11563 -15.6351
ltibia 14.2374
lfoot -13.9354 -7.03379
ltoes -19.5103
374
root -5.65406 16.317 34.9074 168.234 -80.5102 -155.627
lowerback -13.8545 1.89261 1.96629
upperback -5.46401 1.95747 0.163394
thorax 2.07314 0.83416 -0.641703
lowerneck 16.9299 -8.05898 -32.8201
upperneck -7.19472 -18.4496 43.6172
head 3.57765 -12.021 23.7235
rclavicle -6.01324e-015 1.39149e-014
rhumerus -36.3092 12.4549 -95.2928
rradius 24.9411
rwrist 23.9544
rhand -8.71621 3.58128
rfingers 7.12502
rthumb 17.2196 -25.6758
lclavicle -6.01324e-015 1.39149e-014
lhumerus -42.7657 -20.9583 99.3111
lradius 32.7666
lwrist 36.4636
lhand -23.2755 -11.817
lfingers 7.12502
lthumb 3.17707 18.1391
rfemur -9.29608 -6.32655 22.2621
rtibia 6.06054
rfoot -12.1944 13.4518
rtoes -13.2986
lfemur -14.8425 4.10881 -15.6257
ltibia 14.2914
lfoot -13.9435 -7.03482
ltoes -19.4618
375
root -5.65233 16.3172 34.9077 168.207 -80.5137 -155.575
lowerback -13.9824 1.78838 1.96493
upperback -5.32349 1.81705 0.281544
thorax 2.28142 0.770094 -0.534451
lowerneck 16.8209 -7.99727 -33.1196
upperneck -7.55206 -18.3188 43.7869
head 3.52458 -11.9638 23.9769
rclavicle -1.66234e-014 -1.23246e-014
rhumerus -36.2767 13.5251 -95.5667
rradius 25.1495
rwrist 23.3968
rhand -8.71042 3.47296
rfingers 7.12502
rthumb 17.2252 -25.7836
lclavicle -1.66234e-014 -1.23246e-014
lhumerus -42.7115 -21.3918 99.4793
lradius 33.0884
lwrist 36.7196
lhand -23.3737 -11.6618
lfingers 7.12502
lthumb 3.08226 18.2957
rfemur -9.35606 -6.33061 22.274
rtibia 6.11205
rfoot -12.2056 13.4515
rtoes -13.2902
lfemur -14.9039 4.09245 -15.617
ltibia 14.3438
lfoot -13.949 -7.02222
ltoes -19.4257
376
root -5.65054 16.3172 34.9078 168.165 -80.5146 -155.511
lowerback -14.1138 1.75614 1.99305
upperback -5.1975 1.77007 0.318134
thorax 2.48249 0.751286 -0.514569
lowerneck 16.8836 -7.94907 -33.2503
upperneck -8.02142 -18.1988 43.9825
head 3.39264 -11.9327 24.2218
rclavicle 6.38596e-015 4.37326e-015
rhumerus -36.2718 14.3703 -95.8588
rradius 25.3779
rwrist 22.8733
rhand -8.68699 3.38621
rfingers 7.12502
rthumb 17.2477 -25.8684
lclavicle 6.38596e-015 4.37326e-015
lhumerus -42.7431 -22.0971 99.6627
lradius 33.4479
lwrist 37.0477
lhand -23.3915 -11.5298
lfingers 7.12502
lthumb 3.06504 18.4279
rfemur -9.42944 -6.33255 22.2882
rtibia 6.19268
rfoot -12.2291 13.4471
rtoes -13.2794
lfemur -14.9593 4.06398 -15.6022
ltibia 14.3917
lfoot -13.9513 -6.9947
ltoes -19.4205
377
root -5.64857 16.3173 34.9081 168.188 -80.5156 -155.51
lowerback -14.2538 1.81267 2.04489
upperback -5.08865 1.84044 0.251236
thorax 2.67719 0.789725 -0.597029
lowerneck 17.139 -7.92941 -33.1681
upperneck -8.60848 -18.1082 44.2061
head 3.17935 -11.9405 24.4429
rclavicle 3.95085e-015 1.19271e-014
rhumerus -36.2771 14.8869 -96.1456
rradius 25.612
rwrist 22.4224
rhand -8.65019 3.34606
rfingers 7.12502
rthumb 17.2831 -25.9054
lclavicle 3.95085e-015 1.19271e-014
lhumerus -42.8811 -23.1461 99.8797
lradius 33.8333
lwrist 37.3733
lhand -23.3672 -11.4256
lfingers 7.12502
lthumb 3.08845 18.5318
rfemur -9.52134 -6.33265 22.2915
rtibia 6.30269
rfoot -12.2646 13.4399
rtoes -13.2658
lfemur -15.0144 4.02444 -15.5973
ltibia 14.4349
lfoot -13.9511 -6.95304
ltoes -19.4424
